<svg width="256" height="256" viewBox="0 0 256 256" fill="none" xmlns="http://www.w3.org/2000/svg">
  <defs>
    <radialGradient id="bg" cx="50%" cy="42%" r="64%">
      <stop offset="0%" stop-color="#FFF8FB"/>
      <stop offset="55%" stop-color="#F8C7D8"/>
      <stop offset="100%" stop-color="#B95379"/>
    </radialGradient>
    <linearGradient id="gold" x1="48" y1="34" x2="210" y2="226">
      <stop stop-color="#FFF0B8"/>
      <stop offset=".45" stop-color="#E9B96D"/>
      <stop offset="1" stop-color="#A86D2B"/>
    </linearGradient>
  </defs>
  <circle cx="128" cy="128" r="120" fill="url(#bg)"/>
  <circle cx="128" cy="128" r="111" stroke="url(#gold)" stroke-width="7"/>
  <circle cx="128" cy="128" r="96" stroke="#fff7fb" stroke-width="2" opacity=".8"/>
  <path d="M82 154c19 22 59 24 82 2" stroke="#8B314E" stroke-width="8" stroke-linecap="round"/>
  <path d="M82 93c17-23 69-27 91 5" stroke="#8B314E" stroke-width="8" stroke-linecap="round"/>
  <path d="M160 86l15-25 15 25 25 15-25 15-15 25-15-25-25-15 25-15z" fill="#FFF5C8" stroke="#D9A654" stroke-width="4"/>
  <path d="M64 123l8-14 8 14 14 8-14 8-8 14-8-14-14-8 14-8z" fill="#fff" opacity=".9"/>
  <path d="M115 59l6-10 6 10 10 6-10 6-6 10-6-10-10-6 10-6z" fill="#fff" opacity=".85"/>
  <text x="128" y="140" text-anchor="middle" font-family="Georgia, serif" font-size="82" font-style="italic" fill="#8B314E">CG</text>
  <text x="128" y="190" text-anchor="middle" font-family="Avenir Next, Arial, sans-serif" font-size="18" font-weight="800" letter-spacing="3" fill="#6B3142">CLEANING CO.</text>
</svg>
